<svg width="112" height="112" viewBox="0 0 112 112" fill="none" xmlns="http://www.w3.org/2000/svg">
<circle cx="56" cy="56" r="56" fill="#FA4D23"/>
<path d="M34.389 38C37.2803 38 39.9018 38.6747 42.2535 40.024C44.6437 41.3347 46.5134 43.2044 47.8627 45.6332C49.212 48.0234 49.8866 50.8183 49.8866 54.0181C49.8866 57.2179 49.212 60.0321 47.8627 62.4608C46.5134 64.851 44.6437 66.7208 42.2535 68.0701C39.9018 69.3808 37.2803 70.0362 34.389 70.0362C30.4182 70.0362 27.2955 68.7833 25.021 66.2774V80.792H16V38.4626H24.6162V42.0479C26.8522 39.3493 30.1098 38 34.389 38ZM32.8277 62.6343C35.1407 62.6343 37.0298 61.8633 38.4947 60.3212C39.9982 58.7406 40.75 56.6396 40.75 54.0181C40.75 51.3966 39.9982 49.3148 38.4947 47.7728C37.0298 46.1922 35.1407 45.4019 32.8277 45.4019C30.5146 45.4019 28.6063 46.1922 27.1028 47.7728C25.6378 49.3148 24.9054 51.3966 24.9054 54.0181C24.9054 56.6396 25.6378 58.7406 27.1028 60.3212C28.6063 61.8633 30.5146 62.6343 32.8277 62.6343Z" fill="white"/>
<path d="M85.6647 38C88.556 38 91.1775 38.6746 93.5291 40.0239C95.9193 41.3347 97.7891 43.2044 99.1384 45.6332C100.488 48.0233 101.162 50.8183 101.162 54.0181C101.162 57.2178 100.488 60.0321 99.1384 62.4608C97.7891 64.851 95.9193 66.7208 93.5291 68.0701C91.1775 69.3808 88.556 70.0362 85.6647 70.0362C81.6939 70.0362 78.5712 68.7833 76.2967 66.2774V80.792H67.2757V38.4626H75.8919V42.0479C78.1279 39.3493 81.3855 38 85.6647 38ZM84.1033 62.6343C86.4164 62.6343 88.3054 61.8633 89.7704 60.3212C91.2739 58.7406 92.0256 56.6396 92.0256 54.0181C92.0256 51.3966 91.2739 49.3148 89.7704 47.7728C88.3054 46.1922 86.4164 45.4019 84.1033 45.4019C81.7902 45.4019 79.882 46.1922 78.3785 47.7728C76.9135 49.3148 76.181 51.3966 76.181 54.0181C76.181 56.6396 76.9135 58.7406 78.3785 60.3212C79.882 61.8633 81.7902 62.6343 84.1033 62.6343Z" fill="white"/>
<mask id="path-4-outside-1_1_818" maskUnits="userSpaceOnUse" x="41.3543" y="36" width="31" height="36" fill="black">
<rect fill="white" x="41.3543" y="36" width="31" height="36"/>
<path fill-rule="evenodd" clip-rule="evenodd" d="M48.4815 69.1109C47.3168 68.8015 46.2637 68.4578 45.3223 68.0797L45.3396 68.0701C47.7211 66.7256 49.586 64.8645 50.9341 62.4867C52.7919 62.9706 54.6152 63.2126 56.4038 63.2126C60.2204 63.2126 62.1287 62.2681 62.1287 60.3791C62.1287 59.6049 61.732 59.0218 60.9386 58.6297C60.8288 58.5763 60.7115 58.5265 60.5868 58.4803C59.5459 58.0948 57.946 57.7671 55.7871 57.4972C53.2427 57.1117 51.1417 56.6684 49.484 56.1672C47.8263 55.666 46.3806 54.7793 45.1469 53.5071C43.9519 52.2349 43.3543 50.423 43.3543 48.0714C43.3543 46.1053 43.9133 44.3705 45.0313 42.867C45.5494 42.1761 46.1681 41.555 46.8874 41.0034L46.8711 40.9916C47.7567 40.3129 48.7947 39.7398 49.985 39.2722C52.1825 38.4241 54.7654 38 57.7339 38C59.9313 38 62.1094 38.2506 64.2683 38.7517C64.7009 38.8428 65.1185 38.9414 65.5212 39.0474V46.5293C63.1156 45.3985 60.5263 44.8331 57.7532 44.8331C55.8257 44.8331 54.38 45.1029 53.4162 45.6427C52.4524 46.1824 51.9705 46.8763 51.9705 47.7244C51.9705 48.5746 52.3755 49.1998 53.1854 49.6C53.2881 49.6498 53.3971 49.6961 53.5125 49.7389C54.5534 50.1244 56.2111 50.4906 58.4856 50.8376C61.03 51.2617 63.1118 51.7243 64.7309 52.2254C65.261 52.3769 65.7684 52.5717 66.253 52.8099C67.2564 53.3002 68.1626 53.9759 68.9717 54.8372C70.1294 56.0696 70.7263 57.7722 70.7626 59.9452H70.7433C70.7444 60.0123 70.7449 60.0798 70.7449 60.1478C70.7449 62.0753 70.1667 63.7909 69.0101 65.2944C67.8536 66.7979 66.1573 67.9737 63.9213 68.8218C61.7239 69.6314 59.1024 70.0362 56.0569 70.0362C53.4739 70.0362 50.9488 69.7278 48.4815 69.1109Z"/>
</mask>
<path fill-rule="evenodd" clip-rule="evenodd" d="M48.4815 69.1109C47.3168 68.8015 46.2637 68.4578 45.3223 68.0797L45.3396 68.0701C47.7211 66.7256 49.586 64.8645 50.9341 62.4867C52.7919 62.9706 54.6152 63.2126 56.4038 63.2126C60.2204 63.2126 62.1287 62.2681 62.1287 60.3791C62.1287 59.6049 61.732 59.0218 60.9386 58.6297C60.8288 58.5763 60.7115 58.5265 60.5868 58.4803C59.5459 58.0948 57.946 57.7671 55.7871 57.4972C53.2427 57.1117 51.1417 56.6684 49.484 56.1672C47.8263 55.666 46.3806 54.7793 45.1469 53.5071C43.9519 52.2349 43.3543 50.423 43.3543 48.0714C43.3543 46.1053 43.9133 44.3705 45.0313 42.867C45.5494 42.1761 46.1681 41.555 46.8874 41.0034L46.8711 40.9916C47.7567 40.3129 48.7947 39.7398 49.985 39.2722C52.1825 38.4241 54.7654 38 57.7339 38C59.9313 38 62.1094 38.2506 64.2683 38.7517C64.7009 38.8428 65.1185 38.9414 65.5212 39.0474V46.5293C63.1156 45.3985 60.5263 44.8331 57.7532 44.8331C55.8257 44.8331 54.38 45.1029 53.4162 45.6427C52.4524 46.1824 51.9705 46.8763 51.9705 47.7244C51.9705 48.5746 52.3755 49.1998 53.1854 49.6C53.2881 49.6498 53.3971 49.6961 53.5125 49.7389C54.5534 50.1244 56.2111 50.4906 58.4856 50.8376C61.03 51.2617 63.1118 51.7243 64.7309 52.2254C65.261 52.3769 65.7684 52.5717 66.253 52.8099C67.2564 53.3002 68.1626 53.9759 68.9717 54.8372C70.1294 56.0696 70.7263 57.7722 70.7626 59.9452H70.7433C70.7444 60.0123 70.7449 60.0798 70.7449 60.1478C70.7449 62.0753 70.1667 63.7909 69.0101 65.2944C67.8536 66.7979 66.1573 67.9737 63.9213 68.8218C61.7239 69.6314 59.1024 70.0362 56.0569 70.0362C53.4739 70.0362 50.9488 69.7278 48.4815 69.1109Z" fill="white"/>
<path d="M45.3223 68.0797L44.5928 66.769L41.8439 68.299L44.7632 69.4716L45.3223 68.0797ZM48.4815 69.1109L48.0964 70.5607L48.1071 70.5635L48.1177 70.5662L48.4815 69.1109ZM45.3396 68.0701L46.0691 69.3807L46.077 69.3763L45.3396 68.0701ZM50.9341 62.4867L51.3122 61.0352L50.1975 60.7448L49.6293 61.7469L50.9341 62.4867ZM60.9386 58.6297L61.6032 57.2849L61.5946 57.2808L60.9386 58.6297ZM60.5868 58.4803L61.1077 57.0736V57.0736L60.5868 58.4803ZM55.7871 57.4972L55.5624 58.9803L55.5817 58.9832L55.6011 58.9856L55.7871 57.4972ZM49.484 56.1672L49.9181 54.7314L49.484 56.1672ZM45.1469 53.5071L44.0537 54.5342L44.0618 54.5428L44.0701 54.5514L45.1469 53.5071ZM45.0313 42.867L43.8313 41.967L43.8276 41.9719L45.0313 42.867ZM46.8874 41.0034L47.8002 42.1937L49.396 40.97L47.7681 39.7892L46.8874 41.0034ZM46.8711 40.9916L45.9587 39.8009L44.3618 41.0245L45.9903 42.2058L46.8711 40.9916ZM49.985 39.2722L49.4449 37.8728L49.4366 37.8761L49.985 39.2722ZM64.2683 38.7517L63.9291 40.2129L63.9442 40.2164L63.9593 40.2196L64.2683 38.7517ZM65.5212 39.0474H67.0212V37.8911L65.9031 37.5968L65.5212 39.0474ZM65.5212 46.5293L64.8831 47.8868L67.0212 48.8919V46.5293H65.5212ZM53.4162 45.6427L52.6833 44.3339H52.6833L53.4162 45.6427ZM53.1854 49.6L52.521 50.9448L52.5299 50.9492L53.1854 49.6ZM53.5125 49.7389L54.0335 48.3323L54.0335 48.3323L53.5125 49.7389ZM58.4856 50.8376L58.7322 49.358L58.722 49.3563L58.7118 49.3548L58.4856 50.8376ZM64.7309 52.2254L64.2874 53.6584L64.3031 53.6632L64.3188 53.6677L64.7309 52.2254ZM66.253 52.8099L65.5913 54.1561L65.5945 54.1577L66.253 52.8099ZM68.9717 54.8372L67.8784 55.8642L67.8784 55.8642L68.9717 54.8372ZM70.7626 59.9452V61.4452H72.2878L72.2624 59.9202L70.7626 59.9452ZM70.7433 59.9452V58.4452H69.2193L69.2435 59.9691L70.7433 59.9452ZM69.0101 65.2944L70.1991 66.2089L70.1991 66.2089L69.0101 65.2944ZM63.9213 68.8218L64.4399 70.2293L64.4466 70.2268L64.4533 70.2243L63.9213 68.8218ZM44.7632 69.4716C45.7707 69.8763 46.8832 70.2384 48.0964 70.5607L48.8666 67.6612C47.7503 67.3647 46.7566 67.0393 45.8814 66.6878L44.7632 69.4716ZM44.6101 66.7594L44.5928 66.769L46.0518 69.3903L46.0691 69.3807L44.6101 66.7594ZM49.6293 61.7469C48.4154 63.8878 46.7468 65.5531 44.6022 66.7638L46.077 69.3763C48.6954 67.8981 50.7565 65.8413 52.239 63.2266L49.6293 61.7469ZM56.4038 61.7126C54.7517 61.7126 53.0556 61.4893 51.3122 61.0352L50.556 63.9383C52.5283 64.452 54.4786 64.7126 56.4038 64.7126V61.7126ZM60.6287 60.3791C60.6287 60.5857 60.581 60.7002 60.5267 60.7808C60.4656 60.8716 60.3324 61.0112 60.0321 61.1599C59.3895 61.4779 58.2367 61.7126 56.4038 61.7126V64.7126C58.3876 64.7126 60.0972 64.475 61.3629 63.8486C62.0167 63.5249 62.5991 63.0743 63.0151 62.4566C63.4378 61.8289 63.6287 61.1169 63.6287 60.3791H60.6287ZM60.274 59.9744C60.497 60.0847 60.5707 60.1751 60.591 60.2048C60.6036 60.2234 60.6287 60.2622 60.6287 60.3791H63.6287C63.6287 59.7217 63.4555 59.082 63.0714 58.5174C62.6949 57.964 62.1735 57.5668 61.6032 57.2849L60.274 59.9744ZM60.0658 59.8869C60.1486 59.9176 60.2205 59.9484 60.2825 59.9786L61.5946 57.2808C61.4371 57.2041 61.2744 57.1354 61.1077 57.0736L60.0658 59.8869ZM55.6011 58.9856C57.7326 59.2521 59.1923 59.5634 60.0658 59.8869L61.1077 57.0736C59.8994 56.6261 58.1594 56.2821 55.9732 56.0088L55.6011 58.9856ZM49.0499 57.603C50.8005 58.1322 52.9777 58.5887 55.5624 58.9803L56.0118 56.0141C53.5078 55.6347 51.4829 55.2045 49.9181 54.7314L49.0499 57.603ZM44.0701 54.5514C45.4769 56.0021 47.1423 57.0263 49.0499 57.603L49.9181 54.7314C48.5103 54.3058 47.2843 53.5565 46.2238 52.4629L44.0701 54.5514ZM41.8543 48.0714C41.8543 50.6695 42.5175 52.8989 44.0537 54.5342L46.2402 52.4801C45.3862 51.571 44.8543 50.1765 44.8543 48.0714H41.8543ZM43.8276 41.9719C42.5073 43.7475 41.8543 45.7998 41.8543 48.0714H44.8543C44.8543 46.4107 45.3193 44.9935 46.235 43.762L43.8276 41.9719ZM45.9746 39.8131C45.1522 40.4437 44.4355 41.1614 43.8313 41.967L46.2313 43.767C46.6634 43.1909 47.184 42.6662 47.8002 42.1937L45.9746 39.8131ZM45.9903 42.2058L46.0067 42.2176L47.7681 39.7892L47.7518 39.7773L45.9903 42.2058ZM49.4366 37.8761C48.1346 38.3876 46.9703 39.0258 45.9587 39.8009L47.7834 42.1822C48.5431 41.6001 49.4548 41.0921 50.5335 40.6683L49.4366 37.8761ZM57.7339 36.5C54.6268 36.5 51.853 36.9434 49.4449 37.8728L50.5251 40.6716C52.5119 39.9048 54.904 39.5 57.7339 39.5V36.5ZM64.6075 37.2906C62.3384 36.7638 60.0464 36.5 57.7339 36.5V39.5C59.8161 39.5 61.8805 39.7373 63.9291 40.2129L64.6075 37.2906ZM65.9031 37.5968C65.4748 37.484 65.0328 37.3798 64.5773 37.2839L63.9593 40.2196C64.3689 40.3058 64.7622 40.3987 65.1394 40.4979L65.9031 37.5968ZM67.0212 46.5293V39.0474H64.0212V46.5293H67.0212ZM57.7532 46.3331C60.3155 46.3331 62.6858 46.8539 64.8831 47.8868L66.1593 45.1718C63.5455 43.9431 60.7371 43.3331 57.7532 43.3331V46.3331ZM54.1491 46.9514C54.7788 46.5988 55.9165 46.3331 57.7532 46.3331V43.3331C55.7348 43.3331 53.9811 43.6071 52.6833 44.3339L54.1491 46.9514ZM53.4705 47.7244C53.4705 47.5855 53.4936 47.3185 54.1491 46.9514L52.6833 44.3339C51.4113 45.0463 50.4705 46.1671 50.4705 47.7244H53.4705ZM53.8499 48.2552C53.6356 48.1493 53.5604 48.0574 53.5332 48.0155C53.5095 47.9788 53.4705 47.9022 53.4705 47.7244H50.4705C50.4705 48.3969 50.6341 49.058 51.0153 49.6464C51.3931 50.2296 51.9254 50.6505 52.521 50.9448L53.8499 48.2552ZM54.0335 48.3323C53.9602 48.3052 53.8964 48.2777 53.8409 48.2508L52.5299 50.9492C52.6797 51.0219 52.8339 51.0871 52.9915 51.1455L54.0335 48.3323ZM58.7118 49.3548C56.4548 49.0105 54.9235 48.6619 54.0335 48.3323L52.9915 51.1455C54.1832 51.5869 55.9674 51.9708 58.2594 52.3204L58.7118 49.3548ZM65.1745 50.7925C63.4668 50.2639 61.3127 49.7881 58.7322 49.358L58.239 52.3172C60.7473 52.7352 62.7568 53.1846 64.2874 53.6584L65.1745 50.7925ZM66.9147 51.4638C66.3482 51.1853 65.7572 50.9586 65.143 50.7832L64.3188 53.6677C64.7648 53.7952 65.1885 53.9581 65.5913 54.1561L66.9147 51.4638ZM70.065 53.8102C69.1389 52.8243 68.0873 52.0367 66.9114 51.4622L65.5945 54.1577C66.4255 54.5637 67.1864 55.1275 67.8784 55.8642L70.065 53.8102ZM72.2624 59.9202C72.2217 57.484 71.5443 55.385 70.065 53.8102L67.8784 55.8642C68.7144 56.7541 69.2309 58.0604 69.2628 59.9702L72.2624 59.9202ZM70.7433 61.4452H70.7626V58.4452H70.7433V61.4452ZM72.2449 60.1478C72.2449 60.0719 72.2443 59.9965 72.2432 59.9214L69.2435 59.9691C69.2445 60.0281 69.2449 60.0877 69.2449 60.1478H72.2449ZM70.1991 66.2089C71.5608 64.4387 72.2449 62.4003 72.2449 60.1478H69.2449C69.2449 61.7503 68.7725 63.1431 67.8212 64.3798L70.1991 66.2089ZM64.4533 70.2243C66.8821 69.303 68.834 67.9836 70.1991 66.2089L67.8212 64.3798C66.8732 65.6122 65.4326 66.6443 63.3894 67.4193L64.4533 70.2243ZM56.0569 71.5362C59.229 71.5362 62.0349 71.1154 64.4399 70.2293L63.4028 67.4143C61.4129 68.1474 58.9759 68.5362 56.0569 68.5362V71.5362ZM48.1177 70.5662C50.7059 71.2132 53.3532 71.5362 56.0569 71.5362V68.5362C53.5946 68.5362 51.1918 68.2423 48.8453 67.6557L48.1177 70.5662Z" fill="#FA4D23" mask="url(#path-4-outside-1_1_818)"/>
</svg>
